PathFileType	3	(X/Y/Z)	D:\MSKbioDyn\WearableRobot\20250106\S011\S011_static\S011_walking01.trc
DataRate	CameraRate	NumFrames	NumMarkers	Units	OrigDataRate	OrigDataStartFrame	OrigNumFrames
200.0	200.0	7	39	mm	200.0	934	1867	
Frame#	Time	LFHD			RFHD			LBHD			RBHD			C7			T10			CLAV			STRN			RBAK			LSHO			LUPA			LELB			LFRM			LWRA			LWRB			LFIN			RSHO			RUPA			RELB			RFRM			RWRA			RWRB			RFIN			LASI			RASI			LPSI			RPSI			LTHI			LKNE			LTIB			LANK			LHEE			LTOE			RTHI			RKNE			RTIB			RANK			RHEE			RTOE			
		X1	Y1	Z1	X2	Y2	Z2	X3	Y3	Z3	X4	Y4	Z4	X5	Y5	Z5	X6	Y6	Z6	X7	Y7	Z7	X8	Y8	Z8	X9	Y9	Z9	X10	Y10	Z10	X11	Y11	Z11	X12	Y12	Z12	X13	Y13	Z13	X14	Y14	Z14	X15	Y15	Z15	X16	Y16	Z16	X17	Y17	Z17	X18	Y18	Z18	X19	Y19	Z19	X20	Y20	Z20	X21	Y21	Z21	X22	Y22	Z22	X23	Y23	Z23	X24	Y24	Z24	X25	Y25	Z25	X26	Y26	Z26	X27	Y27	Z27	X28	Y28	Z28	X29	Y29	Z29	X30	Y30	Z30	X31	Y31	Z31	X32	Y32	Z32	X33	Y33	Z33	X34	Y34	Z34	X35	Y35	Z35	X36	Y36	Z36	X37	Y37	Z37	X38	Y38	Z38	X39	Y39	Z39	
934	4.66	246.52962	1662.0918	-295.00693	233.16663	1656.809	-162.63034	126.8027	1594.8716	-302.75168	117.48447	1582.9166	-165.88158	76.919289	1462.6891	-228.19916	27.246901	1157.3065	-214.05116	204.62004	1381.6488	-241.71033	237.53337	1182.0941	-248.26457	15.818258	1278.6687	-155.26025	120.16249	1410.0549	-411.98749	75.468987	1213.2437	-482.99271	111.56262	1057.5505	-495.30804	203.13928	976.83081	-514.1673	281.19547	882.98639	-458.39215	246.88083	871.4389	-517.08398	303.39066	819.41632	-521.60083	148.85411	1403.7407	-57.072105	119.52779	1221.0197	11.084769	108.32168	1049.4176	8.1153116	162.05281	933.93036	32.273018	202.40628	830.00476	-26.456207	161.54565	824.37494	32.709126	209.71268	754.88812	39.190746	208.79242	938.89069	-367.56879	222.68903	952.09515	-122.50928	12.384222	955.89148	-271.49292	15.945583	953.79498	-199.1422	174.11075	738.6748	-431.2908	223.30148	492.54996	-418.63586	118.40523	402.19055	-417.46783	-43.21516	210.05893	-367.22781	-131.48727	215.98293	-299.44724	37.047352	88.423355	-362.77975	190.76125	739.09735	-71.676712	175.67421	480.41776	-116.42313	119.27634	309.11972	-107.19812	101.44897	83.872871	-165.59656	23.655441	37.627529	-220.16673	251.01506	53.243523	-195.86057
935	4.665	246.48898	1662.2601	-295.03339	233.24557	1657.1494	-162.65471	126.69368	1595.0422	-302.67636	117.52945	1583.208	-165.77135	76.865593	1463.0685	-227.80144	26.820812	1157.548	-213.33191	204.47134	1381.8583	-241.62839	237.01141	1182.2751	-248.19438	15.785106	1279.1758	-154.51529	119.57787	1410.2139	-411.7327	73.39875	1213.6143	-482.38144	107.97093	1057.8667	-494.80292	197.94319	975.30896	-513.88263	273.76514	879.51904	-459.0856	239.2459	868.96002	-517.40002	294.62759	815.65167	-522.06799	149.35187	1404.1963	-56.949978	121.69666	1221.4352	11.605164	112.28383	1049.5972	8.8829975	167.89133	934.77362	32.568356	209.83772	831.57434	-26.332281	169.2137	825.25128	33.021282	218.41988	756.69171	38.886578	207.85388	938.99725	-366.79245	221.49898	952.09631	-122.0109	11.687819	956.27972	-271.81354	15.040075	954.16376	-199.49176	175.14699	740.06641	-431.64645	227.14838	494.05341	-418.20792	123.82442	401.74149	-417.41211	-34.443615	206.59407	-367.41254	-123.16169	209.81348	-300.21951	49.029396	87.237762	-362.64874	188.71199	738.90631	-71.672768	171.50542	480.35202	-116.30776	114.24268	309.34024	-107.19706	95.834679	83.751114	-165.90585	17.061941	38.068718	-220.11292	245.48752	53.015209	-195.75259
936	4.67	246.44804	1662.432	-295.09439	233.25838	1657.37	-162.74777	126.68602	1595.1405	-302.5983	117.58768	1583.4426	-165.66347	76.811386	1463.3915	-227.42339	26.309345	1158.083	-213.00414	204.28038	1382.0856	-241.60789	236.57257	1182.5378	-248.04936	15.746754	1279.6909	-153.7803	118.97678	1410.4382	-411.5257	71.349075	1214.0247	-481.93045	104.60821	1058.1127	-494.1658	192.65407	973.86401	-513.74847	266.63525	876.37823	-459.20749	231.84622	866.62866	-517.74121	285.71997	812.07898	-522.71252	149.76633	1404.5911	-56.854481	123.86859	1221.8817	12.197067	116.20365	1049.6652	9.5672045	173.78532	935.63916	32.804092	217.02289	833.21252	-26.43012	176.86436	826.12201	33.116661	227.08792	759.06921	38.133869	207.92708	939.4834	-366.4935	220.38727	952.03564	-121.51684	10.984765	956.64209	-272.1843	14.222984	954.46692	-199.85783	176.32069	741.10992	-431.5437	230.9333	495.72217	-417.85181	129.25896	401.17233	-417.41077	-25.477343	203.10408	-367.63864	-114.57642	203.33388	-300.8952	61.343029	86.234436	-362.8526	185.97958	738.54291	-71.627327	167.2119	480.27121	-116.27266	109.41092	309.59952	-107.23473	89.77282	84.085625	-165.77939	11.541517	38.457214	-219.98927	239.85445	52.811329	-195.66553
937	4.675	246.39194	1662.5579	-295.16345	233.34854	1657.6425	-162.75739	126.6116	1595.2614	-302.53003	117.65463	1583.6482	-165.55644	76.77166	1463.7163	-227.04266	25.80615	1158.5466	-212.74501	204.09032	1382.2556	-241.61214	236.19662	1182.7223	-247.88918	15.720403	1280.1099	-153.12718	118.41788	1410.6594	-411.31281	69.382187	1214.108	-481.33188	100.98341	1058.2601	-493.66107	187.05928	972.41547	-513.84906	259.24902	873.18164	-459.54391	224.08142	864.36206	-517.93372	276.77118	808.58649	-523.18445	150.21484	1404.9955	-56.750977	125.9914	1222.3542	12.731271	120.19528	1049.7491	10.239115	179.64143	936.55768	33.082951	223.52997	834.86865	-26.643019	184.51038	827.15521	33.23074	237.94524	761.1842	38.113007	208.0174	939.91949	-366.08289	219.185	951.96704	-120.99866	10.294527	956.84344	-272.50372	13.187949	954.77618	-200.24458	176.88838	742.32458	-432.22873	234.7095	497.1405	-417.29172	134.69508	400.54816	-417.44904	-16.42074	199.47275	-367.56973	-105.64738	196.91011	-301.35464	73.756752	85.25705	-363.10959	182.58224	738.41528	-71.306969	163.01527	480.21173	-116.18962	104.34133	309.83432	-107.61784	84.400002	83.986923	-166.00951	5.779036	38.313229	-219.96277	234.21373	52.570572	-195.6067
938	4.68	246.35455	1662.6816	-295.19891	233.40834	1657.8329	-162.72401	126.58852	1595.4194	-302.41342	117.72459	1583.8439	-165.45795	76.841843	1463.8699	-226.74037	25.369108	1158.8842	-212.29024	203.95163	1382.4043	-241.60841	235.47406	1182.9249	-247.70781	15.69668	1280.5027	-152.48839	117.85895	1410.8527	-411.12976	67.350433	1214.5618	-480.81476	97.138214	1058.5697	-493.13257	181.68036	971.02386	-513.49634	251.79022	870.29889	-460.10068	216.31464	862.11505	-518.18121	267.80255	805.22144	-523.48035	150.64197	1405.2916	-56.654675	128.09207	1222.7488	13.227681	124.10868	1049.8333	10.879796	185.51485	937.49982	33.289246	230.55122	836.64478	-26.79114	192.13927	828.24945	33.295105	247.04881	763.5083	37.340744	207.70622	940.21063	-365.63962	218.03889	951.90472	-120.43523	9.5843954	957.14166	-272.97018	12.327038	955.03333	-200.71535	178.35887	743.50012	-432.39981	238.3119	498.7818	-416.87921	140.17082	399.87186	-417.41174	-7.3219023	196.02231	-367.81308	-96.536613	190.67065	-301.74435	86.267395	84.30658	-363.43475	179.79144	738.13245	-71.190651	158.90292	480.19763	-116.1479	99.493706	309.86441	-107.60184	78.96965	83.964371	-166.29582	0.01454373	38.125645	-220.14879	228.65219	52.289551	-195.48839
939	4.685	246.28253	1662.7776	-295.25311	233.43909	1658.0103	-162.82469	126.49125	1595.4801	-302.37939	117.76266	1584.0078	-165.37459	76.667801	1464.2081	-226.35164	24.904461	1159.202	-211.98749	203.82338	1382.5281	-241.5202	235.21477	1182.9908	-247.62503	15.635748	1280.8561	-151.85977	117.2894	1411.0294	-410.97971	65.287445	1214.8859	-480.27051	93.787354	1058.7502	-492.51587	176.29005	969.77161	-513.48938	244.24118	867.25861	-460.39032	208.41035	860.05121	-518.36646	258.59628	802.02594	-524.07678	151.00854	1405.5519	-56.5396	130.16693	1223.1149	13.720847	128.06947	1049.9524	11.558665	191.34755	938.52698	33.447407	238.31017	838.53381	-27.137371	199.744	829.43597	33.213917	255.92747	765.68494	37.243057	207.13589	940.37268	-365.06445	216.79861	951.76215	-119.95362	8.8098278	957.49542	-273.53479	11.308949	955.24225	-201.22987	179.49078	744.63416	-432.67227	241.95784	500.45215	-416.58762	145.6635	399.18698	-417.48651	2.3960478	192.49367	-368.07086	-87.158348	184.45587	-302.03256	98.587509	83.470642	-363.78183	176.95715	737.98126	-71.042015	154.74686	480.0213	-116.04681	94.722366	310.24542	-107.74204	73.49633	84.099525	-166.28864	-6.1620626	38.270409	-219.99884	223.0381	52.144688	-195.43649
940	4.69	246.23914	1662.861	-295.31464	233.50932	1658.2086	-162.79776	126.46306	1595.5504	-302.26352	117.80951	1584.1313	-165.28401	76.63353	1464.4309	-226.03761	24.409199	1159.5909	-211.76692	203.63232	1382.652	-241.57544	234.63359	1183.1661	-247.30652	15.566991	1281.1996	-151.3031	116.78236	1411.2065	-410.80884	63.31118	1215.1311	-479.63739	90.184303	1059.0737	-491.96115	170.73517	968.46112	-513.37524	236.76266	864.3924	-460.47433	200.49782	858.08557	-518.59705	249.49579	798.88605	-524.32379	151.36034	1405.7937	-56.530476	132.23351	1223.4819	14.185861	131.9763	1050.0676	12.163937	197.15695	939.57654	33.621593	245.47531	840.44647	-27.317938	207.38518	830.67822	33.253105	263.07327	767.36017	37.438919	207.02779	940.68378	-364.82968	215.43552	951.55939	-119.5243	8.1395264	957.71191	-274.02417	10.392591	955.45636	-201.73105	180.65599	745.80127	-432.92938	245.36411	501.9328	-416.31702	151.16917	398.40671	-417.42322	11.881097	189.00836	-368.14029	-77.402748	178.3743	-302.03629	110.88769	82.59494	-364.16708	174.08528	737.76691	-70.975845	150.58282	479.96674	-115.98607	89.93856	310.33374	-107.99951	67.976646	84.122177	-166.42851	-11.508212	38.36615	-220.10094	217.29774	51.850117	-195.44646
